<svg class="railroad-diagram" height="174" viewBox="0 0 1381.5 174" width="1381.5" xmlns="http://www.w3.org/2000/svg" xmlns:xlink="http://www.w3.org/1999/xlink">
<g transform="translate(.5 .5)">
<style>/* <![CDATA[ */
svg.railroad-diagram {
    background-color: rgba(0, 0, 0, 0);
}

svg.railroad-diagram path {
    stroke-width: 2;
    stroke: #000000;
    fill: rgba(0, 0, 0, 0);
}

svg.railroad-diagram text {
    font-weight: bold;
    font-size: 14px;
    font-family: "Fira Code", "Fira Mono", monospace;
    text-anchor: middle;
}

svg.railroad-diagram text.label {
    text-anchor: start;
}

svg.railroad-diagram text.comment {
    font-size: 12px;
    font-family: "Fira Code", "Fira Mono", monospace;
    text-anchor: middle;
}

svg.railroad-diagram rect {
    stroke-width: 2;
    stroke: #000000;
    fill: #eeeeee;
}

svg.railroad-diagram rect.group-box {
    stroke: #808080;
    stroke-dasharray: 10 5;
    fill: none;
}

/* ]]> */
</style><g>
<path d="M20 45v20m10 -20v20m-10 -10h61.0"></path><text style="text-anchor:start" x="20" y="40">Sprite</text></g><path d="M81.0 55h10"></path><g>
<path d="M91.0 55h0.0"></path><path d="M1331.5 135h0.0"></path><rect class="group-box" height="118" rx="10" ry="10" width="1240.5" x="91.0" y="36"></rect><g>
<path d="M91.0 55h10.0"></path><path d="M1321.5 135h10.0"></path><g class="non-terminal ">
<path d="M101.0 55h0.0"></path><path d="M350.5 55h0.0"></path><rect height="22" width="249.5" x="101.0" y="44"></rect><text x="225.75" y="59">String.value&#42; (uint32) name</text></g><path d="M350.5 55h10"></path><path d="M360.5 55h10"></path><g>
<path d="M370.5 55h0.0"></path><path d="M370.5 55h10"></path><g class="non-terminal ">
<path d="M380.5 55h14.25"></path><path d="M516.75 55h14.25"></path><rect height="22" width="122.0" x="394.75" y="44"></rect><text x="455.75" y="59">uint32 width</text></g><path d="M531.0 55a10 10 0 0 1 10 10v0a10 10 0 0 1 -10 10h-150.5a10 10 0 0 0 -10 10v0a10 10 0 0 0 10 10"></path><g class="non-terminal ">
<path d="M380.5 95h10.0"></path><path d="M521.0 95h10.0"></path><rect height="22" width="130.5" x="390.5" y="84"></rect><text x="455.75" y="99">uint32 height</text></g><path d="M531.0 95h10"></path><path d="M541.0 95h0.0"></path></g><path d="M541.0 95h10"></path><path d="M551.0 95h10"></path><g class="non-terminal ">
<path d="M561.0 95h0.0"></path><path d="M717.0 95h0.0"></path><rect height="22" width="156.0" x="561.0" y="84"></rect><text x="639.0" y="99">byte unknown&#91;64&#93;</text></g><path d="M717.0 95h10"></path><path d="M727.0 95h10"></path><g>
<path d="M737.0 95h0.0"></path><path d="M737.0 95h10"></path><g class="non-terminal ">
<path d="M747.0 95h116.25"></path><path d="M1027.75 95h116.25"></path><rect height="22" width="164.5" x="863.25" y="84"></rect><text x="945.5" y="99">uint32 frameCount</text></g><path d="M1144.0 95a10 10 0 0 1 10 10v0a10 10 0 0 1 -10 10h-397.0a10 10 0 0 0 -10 10v0a10 10 0 0 0 10 10"></path><g class="non-terminal ">
<path d="M747.0 135h10.0"></path><path d="M1134.0 135h10.0"></path><rect height="22" width="377.0" x="757.0" y="124"></rect><text x="945.5" y="139">TextureRegion&#42; (uint32) frames&#91;frameCount&#93;</text></g><path d="M1144.0 135h10"></path><path d="M1154.0 135h0.0"></path></g><path d="M1154.0 135h10"></path><path d="M1164.0 135h10"></path><g class="non-terminal ">
<path d="M1174.0 135h0.0"></path><path d="M1321.5 135h0.0"></path><rect height="22" width="147.5" x="1174.0" y="124"></rect><text x="1247.75" y="139">byte unknown&#91;?&#93;</text></g></g><g class="non-terminal ">
<path d="M91.0 28h0.0"></path><path d="M353.0 28h0.0"></path><text class="comment" x="222.0" y="33">byte sprite&#91;76 + 4 &#42; frameCount + ?&#93;</text></g></g><path d="M1331.5 135h10"></path><path d="M 1341.5 135 h 20 m -10 -10 v 20 m 10 -20 v 20"></path></g></svg>