<svg class="railroad-diagram" height="656" viewBox="0 0 626 656" width="626" xmlns="http://www.w3.org/2000/svg" xmlns:xlink="http://www.w3.org/1999/xlink">
<g>
<style>/* <![CDATA[ */
svg.railroad-diagram {
    background-color: rgba(0, 0, 0, 0);
}

svg.railroad-diagram path {
    stroke-width: 2;
    stroke: rgba(0, 0, 0, 0.64);
    fill: rgba(0, 0, 0, 0);
}

svg.railroad-diagram text {
    font-family: "Fira Code", "Fira Mono", monospace;
    font-size: 14px;
    text-anchor: middle;
    fill: rgba(0, 0, 0, 0.87);
}

svg.railroad-diagram .non-terminal text,
svg.railroad-diagram .terminal text {
    fill: rgba(255, 255, 255, 255);
}

svg.railroad-diagram text.annotation {
    fill: rgba(0, 0, 0, 0.87);
    font-weight: bold;
}

svg.railroad-diagram text.label {
    fill: rgba(0, 0, 0, 0.87);
}

svg.railroad-diagram text.comment {
    fill: rgba(0, 0, 0, 0.87);
    font-size: 12px;
}


svg.railroad-diagram rect {
    stroke-width: 0;
    stroke: rgba(0, 0, 0, 0);
    fill: rgb(30, 136, 229);
}

svg.railroad-diagram rect.group-box {
    fill: rgba(21, 95, 160, 0.14);
}

svg.railroad-diagram rect.annotation {
    stroke-width: 0;
    stroke: rgba(0, 0, 0, 0);
    fill: rgba(0, 0, 0, 0);
}

/* ]]> */
</style><g>
<path d="M8 73v20m10 -20v20m-10 -10h20"></path></g><path d="M28 83h10"></path><g>
<path d="M38 83h0"></path><path d="M588 605h0"></path><rect class="annotation" height="624" rx="8" ry="8" width="550" x="38" y="24"></rect><g>
<path d="M38 83h0"></path><path d="M568 605h20"></path><rect class="group-box" height="576" rx="8" ry="8" width="530" x="38" y="56"></rect><g>
<path d="M38 83h0"></path><path d="M548 605h20"></path><g>
<path d="M38 83h0"></path></g><path d="M38 83h10"></path><g>
<path d="M48 83h0"></path><path d="M48 83h8"></path><g class="non-terminal ">
<path d="M56 83h0"></path><path d="M319 83h221"></path><rect height="22" width="263" x="56" y="72"></rect><text x="187.5" y="87">String.value&#42; (uint32) name</text></g><path d="M540 83a8 8 0 0 1 8 8v11a8 8 0 0 1 -8 8h-484a8 8 0 0 0 -8 8v43a8 8 0 0 0 8 8"></path><g>
<path d="M56 169h0"></path><path d="M371 169h169"></path><rect class="group-box" height="54" rx="8" ry="8" width="315" x="56" y="142"></rect><g>
<path d="M56 169h0"></path><path d="M351 169h20"></path><g>
<path d="M56 169h0"></path></g><path d="M56 169h10"></path><g>
<path d="M66 169h0"></path><path d="M351 169h0"></path><g class="non-terminal ">
<path d="M66 169h0"></path><path d="M194 169h0"></path><rect height="22" width="128" x="66" y="158"></rect><text x="130.0" y="173">uint32 width</text></g><path d="M194 169h10"></path><path d="M204 169h10"></path><g class="non-terminal ">
<path d="M214 169h0"></path><path d="M351 169h0"></path><rect height="22" width="137" x="214" y="158"></rect><text x="282.5" y="173">uint32 height</text></g></g></g><g class="non-terminal ">
<path d="M56 134h0"></path><path d="M162 134h0"></path><text class="comment" x="109.0" y="139">byte size&#91;8&#93;</text></g></g><path d="M540 169a8 8 0 0 1 8 8v27a8 8 0 0 1 -8 8h-484a8 8 0 0 0 -8 8v11a8 8 0 0 0 8 8"></path><g class="non-terminal ">
<path d="M56 239h0"></path><path d="M220 239h320"></path><rect height="22" width="164" x="56" y="228"></rect><text x="138.0" y="243">byte unknown&#91;36&#93;</text></g><path d="M540 239a8 8 0 0 1 8 8v11a8 8 0 0 1 -8 8h-484a8 8 0 0 0 -8 8v43a8 8 0 0 0 8 8"></path><g>
<path d="M56 325h0"></path><path d="M290 325h250"></path><rect class="group-box" height="54" rx="8" ry="8" width="234" x="56" y="298"></rect><g>
<path d="M56 325h0"></path><path d="M270 325h20"></path><g>
<path d="M56 325h0"></path></g><path d="M56 325h10"></path><g>
<path d="M66 325h0"></path><path d="M270 325h0"></path><g class="non-terminal ">
<path d="M66 325h0"></path><path d="M158 325h0"></path><rect height="22" width="92" x="66" y="314"></rect><text x="112.0" y="329">uint32 x</text></g><path d="M158 325h10"></path><path d="M168 325h10"></path><g class="non-terminal ">
<path d="M178 325h0"></path><path d="M270 325h0"></path><rect height="22" width="92" x="178" y="314"></rect><text x="224.0" y="329">uint32 y</text></g></g></g><g class="non-terminal ">
<path d="M56 290h0"></path><path d="M178 290h0"></path><text class="comment" x="117.0" y="295">byte origin&#91;8&#93;</text></g></g><path d="M540 325a8 8 0 0 1 8 8v27a8 8 0 0 1 -8 8h-484a8 8 0 0 0 -8 8v11a8 8 0 0 0 8 8"></path><g class="non-terminal ">
<path d="M56 395h0"></path><path d="M220 395h320"></path><rect height="22" width="164" x="56" y="384"></rect><text x="138.0" y="399">byte unknown&#91;20&#93;</text></g><path d="M540 395a8 8 0 0 1 8 8v11a8 8 0 0 1 -8 8h-484a8 8 0 0 0 -8 8v43a8 8 0 0 0 8 8"></path><g>
<path d="M56 481h0"></path><path d="M520 535h20"></path><rect class="group-box" height="108" rx="8" ry="8" width="464" x="56" y="454"></rect><g>
<path d="M56 481h0"></path><path d="M500 535h20"></path><g>
<path d="M56 481h0"></path></g><path d="M56 481h10"></path><g>
<path d="M66 481h0"></path><path d="M66 481h8"></path><g class="non-terminal ">
<path d="M74 481h0"></path><path d="M247 481h245"></path><rect height="22" width="173" x="74" y="470"></rect><text x="160.5" y="485">uint32 frameCount</text></g><path d="M492 481a8 8 0 0 1 8 8v11a8 8 0 0 1 -8 8h-418a8 8 0 0 0 -8 8v11a8 8 0 0 0 8 8"></path><g class="non-terminal ">
<path d="M74 535h0"></path><path d="M472 535h20"></path><rect height="22" width="398" x="74" y="524"></rect><text x="273.0" y="539">TextureRegion&#42; (uint32) frames&#91;frameCount&#93;</text></g><path d="M492 535h8"></path><path d="M500 535h0"></path></g></g><g class="non-terminal ">
<path d="M56 446h0"></path><path d="M314 446h0"></path><text class="comment" x="185.0" y="451">byte frames&#91;4 + 4 &#42; frameCount&#93;</text></g></g><path d="M540 535a8 8 0 0 1 8 8v27a8 8 0 0 1 -8 8h-484a8 8 0 0 0 -8 8v11a8 8 0 0 0 8 8"></path><g class="non-terminal ">
<path d="M56 605h0"></path><path d="M211 605h329"></path><rect height="22" width="155" x="56" y="594"></rect><text x="133.5" y="609">byte unknown&#91;?&#93;</text></g><path d="M540 605h8"></path><path d="M548 605h0"></path></g></g><g class="non-terminal ">
<path d="M38 48h0"></path><path d="M336 48h0"></path><text class="comment" x="187.0" y="53">byte sprite&#91;80 + 4 &#42; frameCount + ?&#93;</text></g></g><g>
<path d="M38 16h0"></path><path d="M96 16h0"></path><text class="annotation" x="67.0" y="21">Sprite</text></g></g><path d="M588 605h10"></path><path d="M 598 605 h 20 m -10 -10 v 20 m 10 -20 v 20"></path></g></svg>