<svg class="railroad-diagram" height="94" viewBox="0 0 541.5 94" width="541.5" xmlns="http://www.w3.org/2000/svg" xmlns:xlink="http://www.w3.org/1999/xlink">
<g transform="translate(.5 .5)">
<style>/* <![CDATA[ */
svg.railroad-diagram {
    background-color: rgba(0, 0, 0, 0);
}

svg.railroad-diagram path {
    stroke-width: 2;
    stroke: #000000;
    fill: rgba(0, 0, 0, 0);
}

svg.railroad-diagram text {
    font-weight: bold;
    font-size: 14px;
    font-family: "Fira Code", "Fira Mono", monospace;
    text-anchor: middle;
}

svg.railroad-diagram text.label {
    text-anchor: start;
}

svg.railroad-diagram text.comment {
    font-size: 12px;
    font-family: "Fira Code", "Fira Mono", monospace;
    text-anchor: middle;
}

svg.railroad-diagram rect {
    stroke-width: 2;
    stroke: #000000;
    fill: #eeeeee;
}

svg.railroad-diagram rect.group-box {
    stroke: #808080;
    stroke-dasharray: 10 5;
    fill: none;
}

/* ]]> */
</style><g>
<path d="M20 45v20m10 -20v20m-10 -10h61.0"></path><text style="text-anchor:start" x="20" y="40">String</text></g><path d="M81.0 55h10"></path><g>
<path d="M91.0 55h0.0"></path><path d="M491.5 55h0.0"></path><rect class="group-box" height="38" rx="10" ry="10" width="400.5" x="91.0" y="36"></rect><g>
<path d="M91.0 55h10.0"></path><path d="M481.5 55h10.0"></path><g class="non-terminal ">
<path d="M101.0 55h0.0"></path><path d="M231.5 55h0.0"></path><rect height="22" width="130.5" x="101.0" y="44"></rect><text x="166.25" y="59">uint32 length</text></g><path d="M231.5 55h10"></path><path d="M241.5 55h10"></path><g class="non-terminal ">
<path d="M251.5 55h0.0"></path><path d="M424.5 55h0.0"></path><rect height="22" width="173.0" x="251.5" y="44"></rect><text x="338.0" y="59">char value&#91;length&#93;</text></g><path d="M424.5 55h10"></path><path d="M434.5 55h10"></path><g class="terminal ">
<path d="M444.5 55h0.0"></path><path d="M481.5 55h0.0"></path><rect height="22" rx="10" ry="10" width="37.0" x="444.5" y="44"></rect><text x="463.0" y="59">\0</text></g></g><g class="non-terminal ">
<path d="M91.0 28h0.0"></path><path d="M311.0 28h0.0"></path><text class="comment" x="201.0" y="33">byte string&#91;8 + string.length&#93;</text></g></g><path d="M491.5 55h10"></path><path d="M 501.5 55 h 20 m -10 -10 v 20 m 10 -20 v 20"></path></g></svg>