<svg class="railroad-diagram" height="86" viewBox="0 0 565 86" width="565" xmlns="http://www.w3.org/2000/svg" xmlns:xlink="http://www.w3.org/1999/xlink">
<g>
<style>/* <![CDATA[ */
svg.railroad-diagram {
    background-color: rgba(0, 0, 0, 0);
}

svg.railroad-diagram path {
    stroke-width: 2;
    stroke: rgba(0, 0, 0, 0.64);
    fill: rgba(0, 0, 0, 0);
}

svg.railroad-diagram text {
    font-family: "Fira Code", "Fira Mono", monospace;
    font-size: 14px;
    text-anchor: middle;
    fill: rgba(0, 0, 0, 0.87);
}

svg.railroad-diagram .non-terminal text,
svg.railroad-diagram .terminal text {
    fill: rgba(255, 255, 255, 255);
}

svg.railroad-diagram text.label {
    fill: rgba(0, 0, 0, 0.87);
}

svg.railroad-diagram text.comment {
    fill: rgba(0, 0, 0, 0.87);
    font-size: 12px;
}

svg.railroad-diagram rect {
    stroke-width: 0;
    stroke: rgba(0, 0, 0, 0);
    fill: rgb(30, 136, 229);
}

svg.railroad-diagram rect.group-box {
    fill: rgb(21, 95, 160, 0.14);
}
/* ]]> */
</style><g>
<path d="M8 41v20m10 -20v20m-10 -10h64"></path><text style="text-anchor:start" x="8" y="36">String</text></g><path d="M72 51h10"></path><g>
<path d="M82 51h0"></path><path d="M527 51h0"></path><rect class="group-box" height="54" rx="8" ry="8" width="445" x="82" y="24"></rect><g>
<path d="M82 51h0"></path><path d="M507 51h20"></path><g>
<path d="M82 51h0"></path></g><path d="M82 51h10"></path><g>
<path d="M92 51h0"></path><path d="M507 51h0"></path><g class="non-terminal ">
<path d="M92 51h0"></path><path d="M229 51h0"></path><rect height="22" width="137" x="92" y="40"></rect><text x="160.5" y="55">uint32 length</text></g><path d="M229 51h10"></path><path d="M239 51h10"></path><g class="non-terminal ">
<path d="M249 51h0"></path><path d="M431 51h0"></path><rect height="22" width="182" x="249" y="40"></rect><text x="340.0" y="55">char value&#91;length&#93;</text></g><path d="M431 51h10"></path><path d="M441 51h10"></path><g class="terminal ">
<path d="M451 51h0"></path><path d="M507 51h0"></path><rect height="22" rx="10" ry="10" width="56" x="451" y="40"></rect><text x="479.0" y="55">"\0"</text></g></g></g><g class="non-terminal ">
<path d="M82 16h0"></path><path d="M332 16h0"></path><text class="comment" x="207.0" y="21">byte string&#91;8 + string.length&#93;</text></g></g><path d="M527 51h10"></path><path d="M 537 51 h 20 m -10 -10 v 20 m 10 -20 v 20"></path></g></svg>