<svg class="railroad-diagram" height="86" viewBox="0 0 751 86" width="751" xmlns="http://www.w3.org/2000/svg" xmlns:xlink="http://www.w3.org/1999/xlink">
<g>
<style>/* <![CDATA[ */
svg.railroad-diagram {
    background-color: rgba(0, 0, 0, 0);
}

svg.railroad-diagram path {
    stroke-width: 2;
    stroke: rgba(0, 0, 0, 0.64);
    fill: rgba(0, 0, 0, 0);
}

svg.railroad-diagram text {
    font-family: "Fira Code", "Fira Mono", monospace;
    font-size: 14px;
    text-anchor: middle;
    fill: rgba(0, 0, 0, 0.87);
}

svg.railroad-diagram .non-terminal text,
svg.railroad-diagram .terminal text {
    fill: rgba(255, 255, 255, 255);
}

svg.railroad-diagram text.label {
    fill: rgba(0, 0, 0, 0.87);
}

svg.railroad-diagram text.comment {
    fill: rgba(0, 0, 0, 0.87);
    font-size: 12px;
}

svg.railroad-diagram rect {
    stroke-width: 0;
    stroke: rgba(0, 0, 0, 0);
    fill: rgb(30, 136, 229);
}

svg.railroad-diagram rect.group-box {
    fill: rgb(21, 95, 160, 0.14);
}
/* ]]> */
</style><g>
<path d="M8 41v20m10 -20v20m-10 -10h109"></path><text style="text-anchor:start" x="8" y="36">TextureData</text></g><path d="M117 51h10"></path><g>
<path d="M127 51h0"></path><path d="M713 51h0"></path><rect class="group-box" height="54" rx="8" ry="8" width="586" x="127" y="24"></rect><g>
<path d="M127 51h0"></path><path d="M184 51h529"></path><g>
<path d="M127 51h0"></path></g><path d="M127 51h10"></path><g class="non-terminal ">
<path d="M137 51h0"></path><path d="M184 51h0"></path><rect height="22" width="47" x="137" y="40"></rect><text x="160.5" y="55">Png</text></g></g><g class="non-terminal ">
<path d="M127 16h0"></path><path d="M713 16h0"></path><text class="comment" x="420.0" y="21">byte textureData&#91;number of bytes to the next texture/end of the section&#93;</text></g></g><path d="M713 51h10"></path><path d="M 723 51 h 20 m -10 -10 v 20 m 10 -20 v 20"></path></g></svg>