<svg class="railroad-diagram" height="494" viewBox="0 0 477 494" width="477" xmlns="http://www.w3.org/2000/svg" xmlns:xlink="http://www.w3.org/1999/xlink">
<g>
<style>/* <![CDATA[ */
svg.railroad-diagram {
    background-color: rgba(0, 0, 0, 0);
}

svg.railroad-diagram path {
    stroke-width: 2;
    stroke: rgba(0, 0, 0, 0.64);
    fill: rgba(0, 0, 0, 0);
}

svg.railroad-diagram text {
    font-family: "Fira Code", "Fira Mono", monospace;
    font-size: 14px;
    text-anchor: middle;
    fill: rgba(0, 0, 0, 0.87);
}

svg.railroad-diagram .non-terminal text,
svg.railroad-diagram .terminal text {
    fill: rgba(255, 255, 255, 255);
}

svg.railroad-diagram text.annotation {
    fill: rgba(0, 0, 0, 0.87);
    font-weight: bold;
}

svg.railroad-diagram text.label {
    fill: rgba(0, 0, 0, 0.87);
}

svg.railroad-diagram text.comment {
    fill: rgba(0, 0, 0, 0.87);
    font-size: 12px;
}


svg.railroad-diagram rect {
    stroke-width: 0;
    stroke: rgba(0, 0, 0, 0);
    fill: rgb(30, 136, 229);
}

svg.railroad-diagram rect.group-box {
    fill: rgba(21, 95, 160, 0.14);
}

svg.railroad-diagram rect.annotation {
    stroke-width: 0;
    stroke: rgba(0, 0, 0, 0);
    fill: rgba(0, 0, 0, 0);
}

/* ]]> */
</style><g>
<path d="M8 105v20m10 -20v20m-10 -10h20"></path></g><path d="M28 115h10"></path><g>
<path d="M38 115h0"></path><path d="M439 443h0"></path><rect class="annotation" height="462" rx="8" ry="8" width="401" x="38" y="24"></rect><g>
<path d="M38 115h0"></path><path d="M419 443h20"></path><rect class="group-box" height="414" rx="8" ry="8" width="381" x="38" y="56"></rect><g>
<path d="M38 115h0"></path><path d="M399 443h20"></path><g>
<path d="M38 115h0"></path></g><path d="M38 115h10"></path><g>
<path d="M48 115h0"></path><path d="M48 115h8"></path><g>
<path d="M56 115h0"></path><path d="M290 115h101"></path><rect class="group-box" height="54" rx="8" ry="8" width="234" x="56" y="88"></rect><g>
<path d="M56 115h0"></path><path d="M270 115h20"></path><g>
<path d="M56 115h0"></path></g><path d="M56 115h10"></path><g>
<path d="M66 115h0"></path><path d="M270 115h0"></path><g class="non-terminal ">
<path d="M66 115h0"></path><path d="M158 115h0"></path><rect height="22" width="92" x="66" y="104"></rect><text x="112.0" y="119">uint16 x</text></g><path d="M158 115h10"></path><path d="M168 115h10"></path><g class="non-terminal ">
<path d="M178 115h0"></path><path d="M270 115h0"></path><rect height="22" width="92" x="178" y="104"></rect><text x="224.0" y="119">uint16 y</text></g></g></g><g class="non-terminal ">
<path d="M56 80h0"></path><path d="M194 80h0"></path><text class="comment" x="125.0" y="85">byte position&#91;4&#93;</text></g></g><path d="M391 115a8 8 0 0 1 8 8v27a8 8 0 0 1 -8 8h-335a8 8 0 0 0 -8 8v43a8 8 0 0 0 8 8"></path><g>
<path d="M56 217h0"></path><path d="M371 217h20"></path><rect class="group-box" height="54" rx="8" ry="8" width="315" x="56" y="190"></rect><g>
<path d="M56 217h0"></path><path d="M351 217h20"></path><g>
<path d="M56 217h0"></path></g><path d="M56 217h10"></path><g>
<path d="M66 217h0"></path><path d="M351 217h0"></path><g class="non-terminal ">
<path d="M66 217h0"></path><path d="M194 217h0"></path><rect height="22" width="128" x="66" y="206"></rect><text x="130.0" y="221">uint16 width</text></g><path d="M194 217h10"></path><path d="M204 217h10"></path><g class="non-terminal ">
<path d="M214 217h0"></path><path d="M351 217h0"></path><rect height="22" width="137" x="214" y="206"></rect><text x="282.5" y="221">uint16 height</text></g></g></g><g class="non-terminal ">
<path d="M56 182h0"></path><path d="M162 182h0"></path><text class="comment" x="109.0" y="187">byte size&#91;4&#93;</text></g></g><path d="M391 217a8 8 0 0 1 8 8v27a8 8 0 0 1 -8 8h-335a8 8 0 0 0 -8 8v43a8 8 0 0 0 8 8"></path><g>
<path d="M56 319h0"></path><path d="M290 319h101"></path><rect class="group-box" height="54" rx="8" ry="8" width="234" x="56" y="292"></rect><g>
<path d="M56 319h0"></path><path d="M270 319h20"></path><g>
<path d="M56 319h0"></path></g><path d="M56 319h10"></path><g>
<path d="M66 319h0"></path><path d="M270 319h0"></path><g class="non-terminal ">
<path d="M66 319h0"></path><path d="M158 319h0"></path><rect height="22" width="92" x="66" y="308"></rect><text x="112.0" y="323">uint16 x</text></g><path d="M158 319h10"></path><path d="M168 319h10"></path><g class="non-terminal ">
<path d="M178 319h0"></path><path d="M270 319h0"></path><rect height="22" width="92" x="178" y="308"></rect><text x="224.0" y="323">uint16 y</text></g></g></g><g class="non-terminal ">
<path d="M56 284h0"></path><path d="M186 284h0"></path><text class="comment" x="121.0" y="289">byte padding&#91;4&#93;</text></g></g><path d="M391 319a8 8 0 0 1 8 8v27a8 8 0 0 1 -8 8h-335a8 8 0 0 0 -8 8v11a8 8 0 0 0 8 8"></path><g class="non-terminal ">
<path d="M56 389h0"></path><path d="M211 389h180"></path><rect height="22" width="155" x="56" y="378"></rect><text x="133.5" y="393">byte unknown&#91;8&#93;</text></g><path d="M391 389a8 8 0 0 1 8 8v11a8 8 0 0 1 -8 8h-335a8 8 0 0 0 -8 8v11a8 8 0 0 0 8 8"></path><g class="non-terminal ">
<path d="M56 443h0"></path><path d="M247 443h144"></path><rect height="22" width="191" x="56" y="432"></rect><text x="151.5" y="447">uint16 textureIndex</text></g><path d="M391 443h8"></path><path d="M399 443h0"></path></g></g><g class="non-terminal ">
<path d="M38 48h0"></path><path d="M224 48h0"></path><text class="comment" x="131.0" y="53">byte textureRegion&#91;22&#93;</text></g></g><g>
<path d="M38 16h0"></path><path d="M152 16h0"></path><text class="annotation" x="95.0" y="21">TextureRegion</text></g></g><path d="M439 443h10"></path><path d="M 449 443 h 20 m -10 -10 v 20 m 10 -20 v 20"></path></g></svg>