<svg class="railroad-diagram" height="86" viewBox="0 0 651 86" width="651" xmlns="http://www.w3.org/2000/svg" xmlns:xlink="http://www.w3.org/1999/xlink">
<g>
<style>/* <![CDATA[ */
svg.railroad-diagram {
    background-color: rgba(0, 0, 0, 0);
}

svg.railroad-diagram path {
    stroke-width: 2;
    stroke: rgba(0, 0, 0, 0.64);
    fill: rgba(0, 0, 0, 0);
}

svg.railroad-diagram text {
    font-family: "Fira Code", "Fira Mono", monospace;
    font-size: 14px;
    text-anchor: middle;
    fill: rgba(0, 0, 0, 0.87);
}

svg.railroad-diagram .non-terminal text,
svg.railroad-diagram .terminal text {
    fill: rgba(255, 255, 255, 255);
}

svg.railroad-diagram text.label {
    fill: rgba(0, 0, 0, 0.87);
}

svg.railroad-diagram text.comment {
    fill: rgba(0, 0, 0, 0.87);
    font-size: 12px;
}

svg.railroad-diagram rect {
    stroke-width: 0;
    stroke: rgba(0, 0, 0, 0);
    fill: rgb(30, 136, 229);
}

svg.railroad-diagram rect.group-box {
    fill: rgb(21, 95, 160, 0.14);
}
/* ]]> */
</style><g>
<path d="M8 41v20m10 -20v20m-10 -10h73"></path><text style="text-anchor:start" x="8" y="36">Texture</text></g><path d="M81 51h10"></path><g>
<path d="M91 51h0"></path><path d="M613 51h0"></path><rect class="group-box" height="54" rx="8" ry="8" width="522" x="91" y="24"></rect><g>
<path d="M91 51h0"></path><path d="M593 51h20"></path><g>
<path d="M91 51h0"></path></g><path d="M91 51h10"></path><g>
<path d="M101 51h0"></path><path d="M593 51h0"></path><g class="non-terminal ">
<path d="M101 51h0"></path><path d="M256 51h0"></path><rect height="22" width="155" x="101" y="40"></rect><text x="178.5" y="55">byte unknown&#91;8&#93;</text></g><path d="M256 51h10"></path><path d="M266 51h10"></path><g class="non-terminal ">
<path d="M276 51h0"></path><path d="M593 51h0"></path><rect height="22" width="317" x="276" y="40"></rect><text x="434.5" y="55">TextureData&#42; (uint32) textureData</text></g></g></g><g class="non-terminal ">
<path d="M91 16h0"></path><path d="M229 16h0"></path><text class="comment" x="160.0" y="21">byte texture&#91;12&#93;</text></g></g><path d="M613 51h10"></path><path d="M 623 51 h 20 m -10 -10 v 20 m 10 -20 v 20"></path></g></svg>