<svg class="railroad-diagram" height="284" viewBox="0 0 675 284" width="675" xmlns="http://www.w3.org/2000/svg" xmlns:xlink="http://www.w3.org/1999/xlink">
<g>
<style>/* <![CDATA[ */
svg.railroad-diagram {
    background-color: rgba(0, 0, 0, 0);
}

svg.railroad-diagram path {
    stroke-width: 2;
    stroke: rgba(0, 0, 0, 0.64);
    fill: rgba(0, 0, 0, 0);
}

svg.railroad-diagram text {
    font-family: "Fira Code", "Fira Mono", monospace;
    font-size: 14px;
    text-anchor: middle;
    fill: rgba(0, 0, 0, 0.87);
}

svg.railroad-diagram .non-terminal text,
svg.railroad-diagram .terminal text {
    fill: rgba(255, 255, 255, 255);
}

svg.railroad-diagram text.annotation {
    fill: rgba(0, 0, 0, 0.87);
    font-weight: bold;
}

svg.railroad-diagram text.label {
    fill: rgba(0, 0, 0, 0.87);
}

svg.railroad-diagram text.comment {
    fill: rgba(0, 0, 0, 0.87);
    font-size: 12px;
}


svg.railroad-diagram rect {
    stroke-width: 0;
    stroke: rgba(0, 0, 0, 0);
    fill: rgb(30, 136, 229);
}

svg.railroad-diagram rect.group-box {
    fill: rgba(21, 95, 160, 0.14);
}

svg.railroad-diagram rect.annotation {
    stroke-width: 0;
    stroke: rgba(0, 0, 0, 0);
    fill: rgba(0, 0, 0, 0);
}

/* ]]> */
</style><g>
<path d="M8 105v20m10 -20v20m-10 -10h20"></path></g><path d="M28 115h10"></path><g>
<path d="M38 115h0"></path><path d="M637 217h0"></path><rect class="annotation" height="252" rx="8" ry="8" width="599" x="38" y="24"></rect><g>
<path d="M38 115h0"></path><path d="M617 217h20"></path><rect class="group-box" height="204" rx="8" ry="8" width="579" x="38" y="56"></rect><g>
<path d="M38 115h0"></path><path d="M597 217h20"></path><g>
<path d="M38 115h0"></path></g><path d="M38 115h10"></path><g>
<path d="M48 115h0"></path><path d="M48 115h8"></path><g>
<path d="M56 115h0"></path><path d="M299 115h290"></path><rect class="group-box" height="54" rx="8" ry="8" width="243" x="56" y="88"></rect><g>
<path d="M56 115h0"></path><path d="M279 115h20"></path><g>
<path d="M56 115h0"></path></g><path d="M56 115h10"></path><g>
<path d="M66 115h0"></path><path d="M279 115h0"></path><g class="terminal ">
<path d="M66 115h0"></path><path d="M140 115h0"></path><rect height="22" rx="10" ry="10" width="74" x="66" y="104"></rect><text x="103.0" y="119">"TXTR"</text></g><path d="M140 115h10"></path><path d="M150 115h10"></path><g class="non-terminal ">
<path d="M160 115h0"></path><path d="M279 115h0"></path><rect height="22" width="119" x="160" y="104"></rect><text x="219.5" y="119">uint32 size</text></g></g></g><g class="non-terminal ">
<path d="M56 80h0"></path><path d="M162 80h0"></path><text class="comment" x="109.0" y="85">byte info&#91;8&#93;</text></g></g><path d="M589 115a8 8 0 0 1 8 8v27a8 8 0 0 1 -8 8h-533a8 8 0 0 0 -8 8v43a8 8 0 0 0 8 8"></path><g>
<path d="M56 217h0"></path><path d="M569 217h20"></path><rect class="group-box" height="54" rx="8" ry="8" width="513" x="56" y="190"></rect><g>
<path d="M56 217h0"></path><path d="M549 217h20"></path><g>
<path d="M56 217h0"></path></g><path d="M56 217h10"></path><g>
<path d="M66 217h0"></path><path d="M549 217h0"></path><g class="non-terminal ">
<path d="M66 217h0"></path><path d="M203 217h0"></path><rect height="22" width="137" x="66" y="206"></rect><text x="134.5" y="221">uint32 number</text></g><path d="M203 217h10"></path><path d="M213 217h10"></path><g class="non-terminal ">
<path d="M223 217h0"></path><path d="M549 217h0"></path><rect height="22" width="326" x="223" y="206"></rect><text x="386.0" y="221">Texture&#42; (uint32) textures&#91;number&#93;</text></g></g></g><g class="non-terminal ">
<path d="M56 182h0"></path><path d="M226 182h0"></path><text class="comment" x="141.0" y="187">byte data&#91;info.size&#93;</text></g></g><path d="M589 217h8"></path><path d="M597 217h0"></path></g></g><g class="non-terminal ">
<path d="M38 48h0"></path><path d="M440 48h0"></path><text class="comment" x="239.0" y="53">byte textureSection&#91;8 + textureSection.info.size&#93;</text></g></g><g>
<path d="M38 16h0"></path><path d="M160 16h0"></path><text class="annotation" x="99.0" y="21">TextureSection</text></g></g><path d="M637 217h10"></path><path d="M 647 217 h 20 m -10 -10 v 20 m 10 -20 v 20"></path></g></svg>