<svg class="railroad-diagram" height="290" viewBox="0 0 758 290" width="758" xmlns="http://www.w3.org/2000/svg" xmlns:xlink="http://www.w3.org/1999/xlink">
<g>
<style>/* <![CDATA[ */
svg.railroad-diagram {
    background-color: rgba(0, 0, 0, 0);
}

svg.railroad-diagram path {
    stroke-width: 2;
    stroke: rgba(0, 0, 0, 0.64);
    fill: rgba(0, 0, 0, 0);
}

svg.railroad-diagram text {
    font-family: "Fira Code", "Fira Mono", monospace;
    font-size: 14px;
    text-anchor: middle;
    fill: rgba(0, 0, 0, 0.87);
}

svg.railroad-diagram .non-terminal text,
svg.railroad-diagram .terminal text {
    fill: rgba(255, 255, 255, 255);
}

svg.railroad-diagram text.label {
    fill: rgba(0, 0, 0, 0.87);
}

svg.railroad-diagram text.comment {
    fill: rgba(0, 0, 0, 0.87);
    font-size: 12px;
}

svg.railroad-diagram rect {
    stroke-width: 0;
    stroke: rgba(0, 0, 0, 0);
    fill: rgb(30, 136, 229);
}

svg.railroad-diagram rect.group-box {
    fill: rgb(21, 95, 160, 0.14);
}
/* ]]> */
</style><g>
<path d="M8 73v20m10 -20v20m-10 -10h190"></path><text style="text-anchor:start" x="8" y="68">TextureRegionSection</text></g><path d="M198 83h10"></path><g>
<path d="M208 83h0"></path><path d="M720 239h0"></path><rect class="group-box" height="258" rx="8" ry="8" width="512" x="208" y="24"></rect><g>
<path d="M208 83h0"></path><path d="M700 239h20"></path><g>
<path d="M208 83h0"></path></g><path d="M208 83h10"></path><g>
<path d="M218 83h0"></path><path d="M218 83h8"></path><g>
<path d="M226 83h0"></path><path d="M469 83h223"></path><rect class="group-box" height="54" rx="8" ry="8" width="243" x="226" y="56"></rect><g>
<path d="M226 83h0"></path><path d="M449 83h20"></path><g>
<path d="M226 83h0"></path></g><path d="M226 83h10"></path><g>
<path d="M236 83h0"></path><path d="M449 83h0"></path><g class="terminal ">
<path d="M236 83h0"></path><path d="M310 83h0"></path><rect height="22" rx="10" ry="10" width="74" x="236" y="72"></rect><text x="273.0" y="87">"TPAG"</text></g><path d="M310 83h10"></path><path d="M320 83h10"></path><g class="non-terminal ">
<path d="M330 83h0"></path><path d="M449 83h0"></path><rect height="22" width="119" x="330" y="72"></rect><text x="389.5" y="87">uint32 size</text></g></g></g><g class="non-terminal ">
<path d="M226 48h0"></path><path d="M332 48h0"></path><text class="comment" x="279.0" y="53">byte info&#91;8&#93;</text></g></g><path d="M692 83a8 8 0 0 1 8 8v27a8 8 0 0 1 -8 8h-466a8 8 0 0 0 -8 8v43a8 8 0 0 0 8 8"></path><g>
<path d="M226 185h0"></path><path d="M672 239h20"></path><rect class="group-box" height="108" rx="8" ry="8" width="446" x="226" y="158"></rect><g>
<path d="M226 185h0"></path><path d="M652 239h20"></path><g>
<path d="M226 185h0"></path></g><path d="M226 185h10"></path><g>
<path d="M236 185h0"></path><path d="M236 185h8"></path><g class="non-terminal ">
<path d="M244 185h0"></path><path d="M381 185h263"></path><rect height="22" width="137" x="244" y="174"></rect><text x="312.5" y="189">uint32 number</text></g><path d="M644 185a8 8 0 0 1 8 8v11a8 8 0 0 1 -8 8h-400a8 8 0 0 0 -8 8v11a8 8 0 0 0 8 8"></path><g class="non-terminal ">
<path d="M244 239h0"></path><path d="M624 239h20"></path><rect height="22" width="380" x="244" y="228"></rect><text x="434.0" y="243">TextureRegion&#42; (uint32) textures&#91;number&#93;</text></g><path d="M644 239h8"></path><path d="M652 239h0"></path></g></g><g class="non-terminal ">
<path d="M226 150h0"></path><path d="M396 150h0"></path><text class="comment" x="311.0" y="155">byte data&#91;info.size&#93;</text></g></g><path d="M692 239h8"></path><path d="M700 239h0"></path></g></g><g class="non-terminal ">
<path d="M208 16h0"></path><path d="M706 16h0"></path><text class="comment" x="457.0" y="21">byte textureRegionSection&#91;8 + textureRegionSection.info.size&#93;</text></g></g><path d="M720 239h10"></path><path d="M 730 239 h 20 m -10 -10 v 20 m 10 -20 v 20"></path></g></svg>