<svg class="railroad-diagram" height="134" viewBox="0 0 618 134" width="618" xmlns="http://www.w3.org/2000/svg" xmlns:xlink="http://www.w3.org/1999/xlink">
<g>
<style>/* <![CDATA[ */
svg.railroad-diagram {
    background-color: rgba(0, 0, 0, 0);
}

svg.railroad-diagram path {
    stroke-width: 2;
    stroke: rgba(0, 0, 0, 0.64);
    fill: rgba(0, 0, 0, 0);
}

svg.railroad-diagram text {
    font-family: "Fira Code", "Fira Mono", monospace;
    font-size: 14px;
    text-anchor: middle;
    fill: rgba(0, 0, 0, 0.87);
}

svg.railroad-diagram .non-terminal text,
svg.railroad-diagram .terminal text {
    fill: rgba(255, 255, 255, 255);
}

svg.railroad-diagram text.annotation {
    fill: rgba(0, 0, 0, 0.87);
    font-weight: bold;
}

svg.railroad-diagram text.label {
    fill: rgba(0, 0, 0, 0.87);
}

svg.railroad-diagram text.comment {
    fill: rgba(0, 0, 0, 0.87);
    font-size: 12px;
}


svg.railroad-diagram rect {
    stroke-width: 0;
    stroke: rgba(0, 0, 0, 0);
    fill: rgb(30, 136, 229);
}

svg.railroad-diagram rect.group-box {
    fill: rgba(21, 95, 160, 0.14);
}

svg.railroad-diagram rect.annotation {
    stroke-width: 0;
    stroke: rgba(0, 0, 0, 0);
    fill: rgba(0, 0, 0, 0);
}

/* ]]> */
</style><g>
<path d="M8 73v20m10 -20v20m-10 -10h20"></path></g><path d="M28 83h10"></path><g>
<path d="M38 83h0"></path><path d="M580 83h0"></path><rect class="annotation" height="102" rx="8" ry="8" width="542" x="38" y="24"></rect><g>
<path d="M38 83h0"></path><path d="M560 83h20"></path><rect class="group-box" height="54" rx="8" ry="8" width="522" x="38" y="56"></rect><g>
<path d="M38 83h0"></path><path d="M540 83h20"></path><g>
<path d="M38 83h0"></path></g><path d="M38 83h10"></path><g>
<path d="M48 83h0"></path><path d="M540 83h0"></path><g class="non-terminal ">
<path d="M48 83h0"></path><path d="M203 83h0"></path><rect height="22" width="155" x="48" y="72"></rect><text x="125.5" y="87">byte unknown&#91;8&#93;</text></g><path d="M203 83h10"></path><path d="M213 83h10"></path><g class="non-terminal ">
<path d="M223 83h0"></path><path d="M540 83h0"></path><rect height="22" width="317" x="223" y="72"></rect><text x="381.5" y="87">TextureData&#42; (uint32) textureData</text></g></g></g><g class="non-terminal ">
<path d="M38 48h0"></path><path d="M176 48h0"></path><text class="comment" x="107.0" y="53">byte texture&#91;12&#93;</text></g></g><g>
<path d="M38 16h0"></path><path d="M104 16h0"></path><text class="annotation" x="71.0" y="21">Texture</text></g></g><path d="M580 83h10"></path><path d="M 590 83 h 20 m -10 -10 v 20 m 10 -20 v 20"></path></g></svg>