<svg class="railroad-diagram" height="446" viewBox="0 0 564 446" width="564" xmlns="http://www.w3.org/2000/svg" xmlns:xlink="http://www.w3.org/1999/xlink">
<g>
<style>/* <![CDATA[ */
svg.railroad-diagram {
    background-color: rgba(0, 0, 0, 0);
}

svg.railroad-diagram path {
    stroke-width: 2;
    stroke: rgba(0, 0, 0, 0.64);
    fill: rgba(0, 0, 0, 0);
}

svg.railroad-diagram text {
    font-family: "Fira Code", "Fira Mono", monospace;
    font-size: 14px;
    text-anchor: middle;
    fill: rgba(0, 0, 0, 0.87);
}

svg.railroad-diagram .non-terminal text,
svg.railroad-diagram .terminal text {
    fill: rgba(255, 255, 255, 255);
}

svg.railroad-diagram text.label {
    fill: rgba(0, 0, 0, 0.87);
}

svg.railroad-diagram text.comment {
    fill: rgba(0, 0, 0, 0.87);
    font-size: 12px;
}

svg.railroad-diagram rect {
    stroke-width: 0;
    stroke: rgba(0, 0, 0, 0);
    fill: rgb(30, 136, 229);
}

svg.railroad-diagram rect.group-box {
    fill: rgb(21, 95, 160, 0.14);
}
/* ]]> */
</style><g>
<path d="M8 73v20m10 -20v20m-10 -10h127"></path><text style="text-anchor:start" x="8" y="68">TextureRegion</text></g><path d="M135 83h10"></path><g>
<path d="M145 83h0"></path><path d="M526 411h0"></path><rect class="group-box" height="414" rx="8" ry="8" width="381" x="145" y="24"></rect><g>
<path d="M145 83h0"></path><path d="M506 411h20"></path><g>
<path d="M145 83h0"></path></g><path d="M145 83h10"></path><g>
<path d="M155 83h0"></path><path d="M155 83h8"></path><g>
<path d="M163 83h0"></path><path d="M397 83h101"></path><rect class="group-box" height="54" rx="8" ry="8" width="234" x="163" y="56"></rect><g>
<path d="M163 83h0"></path><path d="M377 83h20"></path><g>
<path d="M163 83h0"></path></g><path d="M163 83h10"></path><g>
<path d="M173 83h0"></path><path d="M377 83h0"></path><g class="non-terminal ">
<path d="M173 83h0"></path><path d="M265 83h0"></path><rect height="22" width="92" x="173" y="72"></rect><text x="219.0" y="87">uint16 x</text></g><path d="M265 83h10"></path><path d="M275 83h10"></path><g class="non-terminal ">
<path d="M285 83h0"></path><path d="M377 83h0"></path><rect height="22" width="92" x="285" y="72"></rect><text x="331.0" y="87">uint16 y</text></g></g></g><g class="non-terminal ">
<path d="M163 48h0"></path><path d="M301 48h0"></path><text class="comment" x="232.0" y="53">byte position&#91;4&#93;</text></g></g><path d="M498 83a8 8 0 0 1 8 8v27a8 8 0 0 1 -8 8h-335a8 8 0 0 0 -8 8v43a8 8 0 0 0 8 8"></path><g>
<path d="M163 185h0"></path><path d="M478 185h20"></path><rect class="group-box" height="54" rx="8" ry="8" width="315" x="163" y="158"></rect><g>
<path d="M163 185h0"></path><path d="M458 185h20"></path><g>
<path d="M163 185h0"></path></g><path d="M163 185h10"></path><g>
<path d="M173 185h0"></path><path d="M458 185h0"></path><g class="non-terminal ">
<path d="M173 185h0"></path><path d="M301 185h0"></path><rect height="22" width="128" x="173" y="174"></rect><text x="237.0" y="189">uint16 width</text></g><path d="M301 185h10"></path><path d="M311 185h10"></path><g class="non-terminal ">
<path d="M321 185h0"></path><path d="M458 185h0"></path><rect height="22" width="137" x="321" y="174"></rect><text x="389.5" y="189">uint16 height</text></g></g></g><g class="non-terminal ">
<path d="M163 150h0"></path><path d="M269 150h0"></path><text class="comment" x="216.0" y="155">byte size&#91;4&#93;</text></g></g><path d="M498 185a8 8 0 0 1 8 8v27a8 8 0 0 1 -8 8h-335a8 8 0 0 0 -8 8v43a8 8 0 0 0 8 8"></path><g>
<path d="M163 287h0"></path><path d="M397 287h101"></path><rect class="group-box" height="54" rx="8" ry="8" width="234" x="163" y="260"></rect><g>
<path d="M163 287h0"></path><path d="M377 287h20"></path><g>
<path d="M163 287h0"></path></g><path d="M163 287h10"></path><g>
<path d="M173 287h0"></path><path d="M377 287h0"></path><g class="non-terminal ">
<path d="M173 287h0"></path><path d="M265 287h0"></path><rect height="22" width="92" x="173" y="276"></rect><text x="219.0" y="291">uint16 x</text></g><path d="M265 287h10"></path><path d="M275 287h10"></path><g class="non-terminal ">
<path d="M285 287h0"></path><path d="M377 287h0"></path><rect height="22" width="92" x="285" y="276"></rect><text x="331.0" y="291">uint16 y</text></g></g></g><g class="non-terminal ">
<path d="M163 252h0"></path><path d="M293 252h0"></path><text class="comment" x="228.0" y="257">byte padding&#91;4&#93;</text></g></g><path d="M498 287a8 8 0 0 1 8 8v27a8 8 0 0 1 -8 8h-335a8 8 0 0 0 -8 8v11a8 8 0 0 0 8 8"></path><g class="non-terminal ">
<path d="M163 357h0"></path><path d="M318 357h180"></path><rect height="22" width="155" x="163" y="346"></rect><text x="240.5" y="361">byte unknown&#91;8&#93;</text></g><path d="M498 357a8 8 0 0 1 8 8v11a8 8 0 0 1 -8 8h-335a8 8 0 0 0 -8 8v11a8 8 0 0 0 8 8"></path><g class="non-terminal ">
<path d="M163 411h0"></path><path d="M354 411h144"></path><rect height="22" width="191" x="163" y="400"></rect><text x="258.5" y="415">uint16 textureIndex</text></g><path d="M498 411h8"></path><path d="M506 411h0"></path></g></g><g class="non-terminal ">
<path d="M145 16h0"></path><path d="M331 16h0"></path><text class="comment" x="238.0" y="21">byte textureRegion&#91;22&#93;</text></g></g><path d="M526 411h10"></path><path d="M 536 411 h 20 m -10 -10 v 20 m 10 -20 v 20"></path></g></svg>