<svg class="railroad-diagram" height="236" viewBox="0 0 771 236" width="771" xmlns="http://www.w3.org/2000/svg" xmlns:xlink="http://www.w3.org/1999/xlink">
<g>
<style>/* <![CDATA[ */
svg.railroad-diagram {
    background-color: rgba(0, 0, 0, 0);
}

svg.railroad-diagram path {
    stroke-width: 2;
    stroke: rgba(0, 0, 0, 0.64);
    fill: rgba(0, 0, 0, 0);
}

svg.railroad-diagram text {
    font-family: "Fira Code", "Fira Mono", monospace;
    font-size: 14px;
    text-anchor: middle;
    fill: rgba(0, 0, 0, 0.87);
}

svg.railroad-diagram .non-terminal text,
svg.railroad-diagram .terminal text {
    fill: rgba(255, 255, 255, 255);
}

svg.railroad-diagram text.label {
    fill: rgba(0, 0, 0, 0.87);
}

svg.railroad-diagram text.comment {
    fill: rgba(0, 0, 0, 0.87);
    font-size: 12px;
}

svg.railroad-diagram rect {
    stroke-width: 0;
    stroke: rgba(0, 0, 0, 0);
    fill: rgb(30, 136, 229);
}

svg.railroad-diagram rect.group-box {
    fill: rgb(21, 95, 160, 0.14);
}
/* ]]> */
</style><g>
<path d="M8 73v20m10 -20v20m-10 -10h136"></path><text style="text-anchor:start" x="8" y="68">TextureSection</text></g><path d="M144 83h10"></path><g>
<path d="M154 83h0"></path><path d="M733 185h0"></path><rect class="group-box" height="204" rx="8" ry="8" width="579" x="154" y="24"></rect><g>
<path d="M154 83h0"></path><path d="M713 185h20"></path><g>
<path d="M154 83h0"></path></g><path d="M154 83h10"></path><g>
<path d="M164 83h0"></path><path d="M164 83h8"></path><g>
<path d="M172 83h0"></path><path d="M415 83h290"></path><rect class="group-box" height="54" rx="8" ry="8" width="243" x="172" y="56"></rect><g>
<path d="M172 83h0"></path><path d="M395 83h20"></path><g>
<path d="M172 83h0"></path></g><path d="M172 83h10"></path><g>
<path d="M182 83h0"></path><path d="M395 83h0"></path><g class="terminal ">
<path d="M182 83h0"></path><path d="M256 83h0"></path><rect height="22" rx="10" ry="10" width="74" x="182" y="72"></rect><text x="219.0" y="87">"TXTR"</text></g><path d="M256 83h10"></path><path d="M266 83h10"></path><g class="non-terminal ">
<path d="M276 83h0"></path><path d="M395 83h0"></path><rect height="22" width="119" x="276" y="72"></rect><text x="335.5" y="87">uint32 size</text></g></g></g><g class="non-terminal ">
<path d="M172 48h0"></path><path d="M278 48h0"></path><text class="comment" x="225.0" y="53">byte info&#91;8&#93;</text></g></g><path d="M705 83a8 8 0 0 1 8 8v27a8 8 0 0 1 -8 8h-533a8 8 0 0 0 -8 8v43a8 8 0 0 0 8 8"></path><g>
<path d="M172 185h0"></path><path d="M685 185h20"></path><rect class="group-box" height="54" rx="8" ry="8" width="513" x="172" y="158"></rect><g>
<path d="M172 185h0"></path><path d="M665 185h20"></path><g>
<path d="M172 185h0"></path></g><path d="M172 185h10"></path><g>
<path d="M182 185h0"></path><path d="M665 185h0"></path><g class="non-terminal ">
<path d="M182 185h0"></path><path d="M319 185h0"></path><rect height="22" width="137" x="182" y="174"></rect><text x="250.5" y="189">uint32 number</text></g><path d="M319 185h10"></path><path d="M329 185h10"></path><g class="non-terminal ">
<path d="M339 185h0"></path><path d="M665 185h0"></path><rect height="22" width="326" x="339" y="174"></rect><text x="502.0" y="189">Texture&#42; (uint32) textures&#91;number&#93;</text></g></g></g><g class="non-terminal ">
<path d="M172 150h0"></path><path d="M342 150h0"></path><text class="comment" x="257.0" y="155">byte data&#91;info.size&#93;</text></g></g><path d="M705 185h8"></path><path d="M713 185h0"></path></g></g><g class="non-terminal ">
<path d="M154 16h0"></path><path d="M556 16h0"></path><text class="comment" x="355.0" y="21">byte textureSection&#91;8 + textureSection.info.size&#93;</text></g></g><path d="M733 185h10"></path><path d="M 743 185 h 20 m -10 -10 v 20 m 10 -20 v 20"></path></g></svg>