<svg class="railroad-diagram" height="446" viewBox="0 0 715 446" width="715" xmlns="http://www.w3.org/2000/svg" xmlns:xlink="http://www.w3.org/1999/xlink">
<g>
<style>/* <![CDATA[ */
svg.railroad-diagram {
    background-color: rgba(0, 0, 0, 0);
}

svg.railroad-diagram path {
    stroke-width: 2;
    stroke: rgba(0, 0, 0, 0.64);
    fill: rgba(0, 0, 0, 0);
}

svg.railroad-diagram text {
    font-family: "Fira Code", "Fira Mono", monospace;
    font-size: 14px;
    text-anchor: middle;
    fill: rgba(0, 0, 0, 0.87);
}

svg.railroad-diagram .non-terminal text,
svg.railroad-diagram .terminal text {
    fill: rgba(255, 255, 255, 255);
}

svg.railroad-diagram text.annotation {
    fill: rgba(0, 0, 0, 0.87);
    font-weight: bold;
}

svg.railroad-diagram text.label {
    fill: rgba(0, 0, 0, 0.87);
}

svg.railroad-diagram text.comment {
    fill: rgba(0, 0, 0, 0.87);
    font-size: 12px;
}


svg.railroad-diagram rect {
    stroke-width: 0;
    stroke: rgba(0, 0, 0, 0);
    fill: rgb(30, 136, 229);
}

svg.railroad-diagram rect.group-box {
    fill: rgba(21, 95, 160, 0.14);
}

svg.railroad-diagram rect.annotation {
    stroke-width: 0;
    stroke: rgba(0, 0, 0, 0);
    fill: rgba(0, 0, 0, 0);
}

/* ]]> */
</style><g>
<path d="M8 73v20m10 -20v20m-10 -10h20"></path></g><path d="M28 83h10"></path><g>
<path d="M38 83h0"></path><path d="M677 293h0"></path><rect class="annotation" height="414" rx="8" ry="8" width="639" x="38" y="24"></rect><g>
<path d="M38 83h0"></path><path d="M38 83h8"></path><g>
<path d="M46 83h0"></path><path d="M271 83h378"></path><rect class="group-box" height="54" rx="8" ry="8" width="225" x="46" y="56"></rect><g>
<path d="M46 83h0"></path><path d="M251 83h20"></path><g>
<path d="M46 83h0"></path></g><path d="M46 83h10"></path><g>
<path d="M56 83h0"></path><path d="M251 83h0"></path><g class="terminal ">
<path d="M56 83h0"></path><path d="M112 83h0"></path><rect height="22" rx="10" ry="10" width="56" x="56" y="72"></rect><text x="84.0" y="87">FORM</text></g><path d="M112 83h10"></path><path d="M122 83h10"></path><g class="non-terminal ">
<path d="M132 83h0"></path><path d="M251 83h0"></path><rect height="22" width="119" x="132" y="72"></rect><text x="191.5" y="87">uint32 size</text></g></g></g><g class="non-terminal ">
<path d="M46 48h0"></path><path d="M168 48h0"></path><text class="comment" x="107.0" y="53">byte header&#91;8&#93;</text></g></g><path d="M649 83a8 8 0 0 1 8 8v27a8 8 0 0 1 -8 8h-603a8 8 0 0 0 -8 8v151a8 8 0 0 0 8 8"></path><g>
<path d="M46 293h0"></path><path d="M629 293h20"></path><path d="M46 293h8"></path><g>
<path d="M54 293h0"></path><path d="M621 293h0"></path><rect class="group-box" height="248" rx="8" ry="8" width="567" x="54" y="158"></rect><g>
<path d="M54 293h0"></path><path d="M601 293h20"></path><g>
<path d="M54 293h0"></path></g><path d="M54 293h10"></path><g>
<path d="M64 293h0"></path><path d="M601 293h0"></path><g>
<path d="M64 293h0"></path><path d="M329 293h0"></path><rect class="group-box" height="200" rx="8" ry="8" width="265" x="64" y="190"></rect><g>
<path d="M64 293h0"></path><path d="M309 293h20"></path><g>
<path d="M64 293h0"></path></g><path d="M64 293h10"></path><g>
<path d="M74 293h0"></path><path d="M309 293h0"></path><g>
<path d="M74 293h0"></path><path d="M180 293h0"></path><path d="M74 293a8 8 0 0 0 8 -8v-22a8 8 0 0 1 8 -8"></path><g class="terminal ">
<path d="M90 255h0"></path><path d="M164 255h0"></path><rect height="22" rx="10" ry="10" width="74" x="90" y="244"></rect><text x="127.0" y="259">"TEXT"</text></g><path d="M164 255a8 8 0 0 1 8 8v22a8 8 0 0 0 8 8"></path><path d="M74 293a8 8 0 0 0 8 -8v-60a8 8 0 0 1 8 -8"></path><g class="terminal ">
<path d="M90 217h0"></path><path d="M164 217h0"></path><rect height="22" rx="10" ry="10" width="74" x="90" y="206"></rect><text x="127.0" y="221">"STRG"</text></g><path d="M164 217a8 8 0 0 1 8 8v60a8 8 0 0 0 8 8"></path><path d="M74 293h16"></path><g class="terminal ">
<path d="M90 293h0"></path><path d="M164 293h0"></path><rect height="22" rx="10" ry="10" width="74" x="90" y="282"></rect><text x="127.0" y="297">"TPAG"</text></g><path d="M164 293h16"></path><path d="M74 293a8 8 0 0 1 8 8v22a8 8 0 0 0 8 8"></path><g class="terminal ">
<path d="M90 331h0"></path><path d="M164 331h0"></path><rect height="22" rx="10" ry="10" width="74" x="90" y="320"></rect><text x="127.0" y="335">"SPRT"</text></g><path d="M164 331a8 8 0 0 0 8 -8v-22a8 8 0 0 1 8 -8"></path><path d="M74 293a8 8 0 0 1 8 8v57a8 8 0 0 0 8 8"></path><g class="non-terminal ">
<path d="M90 366h0"></path><path d="M124 366h40"></path><text class="comment" x="107.0" y="371">...</text></g><path d="M164 366a8 8 0 0 0 8 -8v-57a8 8 0 0 1 8 -8"></path></g><path d="M180 293h10"></path><g class="non-terminal ">
<path d="M190 293h0"></path><path d="M309 293h0"></path><rect height="22" width="119" x="190" y="282"></rect><text x="249.5" y="297">uint32 size</text></g></g></g><g class="non-terminal ">
<path d="M64 182h0"></path><path d="M170 182h0"></path><text class="comment" x="117.0" y="187">byte info&#91;8&#93;</text></g></g><path d="M329 293h10"></path><path d="M339 293h10"></path><g>
<path d="M349 293h0"></path><path d="M601 293h0"></path><rect class="group-box" height="200" rx="8" ry="8" width="252" x="349" y="190"></rect><g>
<path d="M349 293h0"></path><path d="M581 293h20"></path><g>
<path d="M349 293h0"></path></g><g>
<path d="M349 293h0"></path><path d="M581 293h0"></path><path d="M349 293a8 8 0 0 0 8 -8v-22a8 8 0 0 1 8 -8"></path><g class="non-terminal ">
<path d="M365 255h0"></path><path d="M511 255h54"></path><rect height="22" width="146" x="365" y="244"></rect><text x="438.0" y="259">TextureSection</text></g><path d="M565 255a8 8 0 0 1 8 8v22a8 8 0 0 0 8 8"></path><path d="M349 293a8 8 0 0 0 8 -8v-60a8 8 0 0 1 8 -8"></path><g class="non-terminal ">
<path d="M365 217h0"></path><path d="M502 217h63"></path><rect height="22" width="137" x="365" y="206"></rect><text x="433.5" y="221">StringSection</text></g><path d="M565 217a8 8 0 0 1 8 8v60a8 8 0 0 0 8 8"></path><path d="M349 293h16"></path><g class="non-terminal ">
<path d="M365 293h0"></path><path d="M565 293h0"></path><rect height="22" width="200" x="365" y="282"></rect><text x="465.0" y="297">TextureRegionSection</text></g><path d="M565 293h16"></path><path d="M349 293a8 8 0 0 1 8 8v22a8 8 0 0 0 8 8"></path><g class="non-terminal ">
<path d="M365 331h0"></path><path d="M502 331h63"></path><rect height="22" width="137" x="365" y="320"></rect><text x="433.5" y="335">SpriteSection</text></g><path d="M565 331a8 8 0 0 0 8 -8v-22a8 8 0 0 1 8 -8"></path><path d="M349 293a8 8 0 0 1 8 8v57a8 8 0 0 0 8 8"></path><g class="non-terminal ">
<path d="M365 366h0"></path><path d="M399 366h166"></path><text class="comment" x="382.0" y="371">...</text></g><path d="M565 366a8 8 0 0 0 8 -8v-57a8 8 0 0 1 8 -8"></path></g></g><g class="non-terminal ">
<path d="M349 182h0"></path><path d="M519 182h0"></path><text class="comment" x="434.0" y="187">byte data&#91;info.size&#93;</text></g></g></g></g><g class="non-terminal ">
<path d="M54 150h0"></path><path d="M344 150h0"></path><text class="comment" x="199.0" y="155">byte section&#91;8 + section.info.size&#93;</text></g></g><path d="M621 293h8"></path><path d="M54 293a8 8 0 0 0 -8 8v113a8 8 0 0 0 8 8"></path><g>
<path d="M54 422h567"></path></g><path d="M621 422a8 8 0 0 0 8 -8v-113a8 8 0 0 0 -8 -8"></path></g><path d="M649 293h8"></path><path d="M657 293h20"></path></g><g>
<path d="M38 16h0"></path><path d="M72 16h0"></path><text class="annotation" x="55.0" y="21">Unx</text></g></g><path d="M677 293h10"></path><path d="M 687 293 h 20 m -10 -10 v 20 m 10 -20 v 20"></path></g></svg>