<svg class="railroad-diagram" height="398" viewBox="0 0 712 398" width="712" xmlns="http://www.w3.org/2000/svg" xmlns:xlink="http://www.w3.org/1999/xlink">
<g>
<style>/* <![CDATA[ */
svg.railroad-diagram {
    background-color: rgba(0, 0, 0, 0);
}

svg.railroad-diagram path {
    stroke-width: 2;
    stroke: rgba(0, 0, 0, 0.64);
    fill: rgba(0, 0, 0, 0);
}

svg.railroad-diagram text {
    font-family: "Fira Code", "Fira Mono", monospace;
    font-size: 14px;
    text-anchor: middle;
    fill: rgba(0, 0, 0, 0.87);
}

svg.railroad-diagram .non-terminal text,
svg.railroad-diagram .terminal text {
    fill: rgba(255, 255, 255, 255);
}

svg.railroad-diagram text.label {
    fill: rgba(0, 0, 0, 0.87);
}

svg.railroad-diagram text.comment {
    fill: rgba(0, 0, 0, 0.87);
    font-size: 12px;
}

svg.railroad-diagram rect {
    stroke-width: 0;
    stroke: rgba(0, 0, 0, 0);
    fill: rgb(30, 136, 229);
}

svg.railroad-diagram rect.group-box {
    fill: rgb(21, 95, 160, 0.14);
}
/* ]]> */
</style><g>
<path d="M8 41v20m10 -20v20m-10 -10h37"></path><text style="text-anchor:start" x="8" y="36">Unx</text></g><path d="M45 51h10"></path><g>
<path d="M55 51h0"></path><path d="M55 51h8"></path><g>
<path d="M63 51h0"></path><path d="M288 51h378"></path><rect class="group-box" height="54" rx="8" ry="8" width="225" x="63" y="24"></rect><g>
<path d="M63 51h0"></path><path d="M268 51h20"></path><g>
<path d="M63 51h0"></path></g><path d="M63 51h10"></path><g>
<path d="M73 51h0"></path><path d="M268 51h0"></path><g class="terminal ">
<path d="M73 51h0"></path><path d="M129 51h0"></path><rect height="22" rx="10" ry="10" width="56" x="73" y="40"></rect><text x="101.0" y="55">FORM</text></g><path d="M129 51h10"></path><path d="M139 51h10"></path><g class="non-terminal ">
<path d="M149 51h0"></path><path d="M268 51h0"></path><rect height="22" width="119" x="149" y="40"></rect><text x="208.5" y="55">uint32 size</text></g></g></g><g class="non-terminal ">
<path d="M63 16h0"></path><path d="M185 16h0"></path><text class="comment" x="124.0" y="21">byte header&#91;8&#93;</text></g></g><path d="M666 51a8 8 0 0 1 8 8v27a8 8 0 0 1 -8 8h-603a8 8 0 0 0 -8 8v151a8 8 0 0 0 8 8"></path><g>
<path d="M63 261h0"></path><path d="M646 261h20"></path><path d="M63 261h8"></path><g>
<path d="M71 261h0"></path><path d="M638 261h0"></path><rect class="group-box" height="248" rx="8" ry="8" width="567" x="71" y="126"></rect><g>
<path d="M71 261h0"></path><path d="M618 261h20"></path><g>
<path d="M71 261h0"></path></g><path d="M71 261h10"></path><g>
<path d="M81 261h0"></path><path d="M618 261h0"></path><g>
<path d="M81 261h0"></path><path d="M346 261h0"></path><rect class="group-box" height="200" rx="8" ry="8" width="265" x="81" y="158"></rect><g>
<path d="M81 261h0"></path><path d="M326 261h20"></path><g>
<path d="M81 261h0"></path></g><path d="M81 261h10"></path><g>
<path d="M91 261h0"></path><path d="M326 261h0"></path><g>
<path d="M91 261h0"></path><path d="M197 261h0"></path><path d="M91 261a8 8 0 0 0 8 -8v-22a8 8 0 0 1 8 -8"></path><g class="terminal ">
<path d="M107 223h0"></path><path d="M181 223h0"></path><rect height="22" rx="10" ry="10" width="74" x="107" y="212"></rect><text x="144.0" y="227">"TEXT"</text></g><path d="M181 223a8 8 0 0 1 8 8v22a8 8 0 0 0 8 8"></path><path d="M91 261a8 8 0 0 0 8 -8v-60a8 8 0 0 1 8 -8"></path><g class="terminal ">
<path d="M107 185h0"></path><path d="M181 185h0"></path><rect height="22" rx="10" ry="10" width="74" x="107" y="174"></rect><text x="144.0" y="189">"STRG"</text></g><path d="M181 185a8 8 0 0 1 8 8v60a8 8 0 0 0 8 8"></path><path d="M91 261h16"></path><g class="terminal ">
<path d="M107 261h0"></path><path d="M181 261h0"></path><rect height="22" rx="10" ry="10" width="74" x="107" y="250"></rect><text x="144.0" y="265">"TPAG"</text></g><path d="M181 261h16"></path><path d="M91 261a8 8 0 0 1 8 8v22a8 8 0 0 0 8 8"></path><g class="terminal ">
<path d="M107 299h0"></path><path d="M181 299h0"></path><rect height="22" rx="10" ry="10" width="74" x="107" y="288"></rect><text x="144.0" y="303">"SPRT"</text></g><path d="M181 299a8 8 0 0 0 8 -8v-22a8 8 0 0 1 8 -8"></path><path d="M91 261a8 8 0 0 1 8 8v57a8 8 0 0 0 8 8"></path><g class="non-terminal ">
<path d="M107 334h0"></path><path d="M141 334h40"></path><text class="comment" x="124.0" y="339">...</text></g><path d="M181 334a8 8 0 0 0 8 -8v-57a8 8 0 0 1 8 -8"></path></g><path d="M197 261h10"></path><g class="non-terminal ">
<path d="M207 261h0"></path><path d="M326 261h0"></path><rect height="22" width="119" x="207" y="250"></rect><text x="266.5" y="265">uint32 size</text></g></g></g><g class="non-terminal ">
<path d="M81 150h0"></path><path d="M187 150h0"></path><text class="comment" x="134.0" y="155">byte info&#91;8&#93;</text></g></g><path d="M346 261h10"></path><path d="M356 261h10"></path><g>
<path d="M366 261h0"></path><path d="M618 261h0"></path><rect class="group-box" height="200" rx="8" ry="8" width="252" x="366" y="158"></rect><g>
<path d="M366 261h0"></path><path d="M598 261h20"></path><g>
<path d="M366 261h0"></path></g><g>
<path d="M366 261h0"></path><path d="M598 261h0"></path><path d="M366 261a8 8 0 0 0 8 -8v-22a8 8 0 0 1 8 -8"></path><g class="non-terminal ">
<path d="M382 223h0"></path><path d="M528 223h54"></path><rect height="22" width="146" x="382" y="212"></rect><text x="455.0" y="227">TextureSection</text></g><path d="M582 223a8 8 0 0 1 8 8v22a8 8 0 0 0 8 8"></path><path d="M366 261a8 8 0 0 0 8 -8v-60a8 8 0 0 1 8 -8"></path><g class="non-terminal ">
<path d="M382 185h0"></path><path d="M519 185h63"></path><rect height="22" width="137" x="382" y="174"></rect><text x="450.5" y="189">StringSection</text></g><path d="M582 185a8 8 0 0 1 8 8v60a8 8 0 0 0 8 8"></path><path d="M366 261h16"></path><g class="non-terminal ">
<path d="M382 261h0"></path><path d="M582 261h0"></path><rect height="22" width="200" x="382" y="250"></rect><text x="482.0" y="265">TextureRegionSection</text></g><path d="M582 261h16"></path><path d="M366 261a8 8 0 0 1 8 8v22a8 8 0 0 0 8 8"></path><g class="non-terminal ">
<path d="M382 299h0"></path><path d="M519 299h63"></path><rect height="22" width="137" x="382" y="288"></rect><text x="450.5" y="303">SpriteSection</text></g><path d="M582 299a8 8 0 0 0 8 -8v-22a8 8 0 0 1 8 -8"></path><path d="M366 261a8 8 0 0 1 8 8v57a8 8 0 0 0 8 8"></path><g class="non-terminal ">
<path d="M382 334h0"></path><path d="M416 334h166"></path><text class="comment" x="399.0" y="339">...</text></g><path d="M582 334a8 8 0 0 0 8 -8v-57a8 8 0 0 1 8 -8"></path></g></g><g class="non-terminal ">
<path d="M366 150h0"></path><path d="M536 150h0"></path><text class="comment" x="451.0" y="155">byte data&#91;info.size&#93;</text></g></g></g></g><g class="non-terminal ">
<path d="M71 118h0"></path><path d="M361 118h0"></path><text class="comment" x="216.0" y="123">byte section&#91;8 + section.info.size&#93;</text></g></g><path d="M638 261h8"></path><path d="M71 261a8 8 0 0 0 -8 8v113a8 8 0 0 0 8 8"></path><g>
<path d="M71 390h567"></path></g><path d="M638 390a8 8 0 0 0 8 -8v-113a8 8 0 0 0 -8 -8"></path></g><path d="M666 261h8"></path><path d="M674 261h0"></path></g><path d="M674 261h10"></path><path d="M 684 261 h 20 m -10 -10 v 20 m 10 -20 v 20"></path></g></svg>